<svg width="50" height="46" viewBox="0 0 50 46" fill="none" xmlns="http://www.w3.org/2000/svg">
<path d="M12.5 36.4167V38.3333C12.5 38.8764 12.3003 39.3316 11.901 39.699C11.5017 40.0663 11.0069 40.25 10.4167 40.25H8.33333C7.74306 40.25 7.24826 40.0663 6.84896 39.699C6.44965 39.3316 6.25 38.8764 6.25 38.3333V23L10.625 11.5C10.8333 10.925 11.2066 10.4618 11.7448 10.1104C12.283 9.75904 12.8819 9.58334 13.5417 9.58334H36.4583C37.1181 9.58334 37.717 9.75904 38.2552 10.1104C38.7934 10.4618 39.1667 10.925 39.375 11.5L43.75 23V38.3333C43.75 38.8764 43.5503 39.3316 43.151 39.699C42.7517 40.0663 42.2569 40.25 41.6667 40.25H39.5833C38.9931 40.25 38.4983 40.0663 38.099 39.699C37.6997 39.3316 37.5 38.8764 37.5 38.3333V36.4167H12.5ZM12.0833 19.1667H37.9167L35.7292 13.4167H14.2708L12.0833 19.1667ZM15.625 30.6667C16.4931 30.6667 17.2309 30.3872 17.8385 29.8281C18.4462 29.2691 18.75 28.5903 18.75 27.7917C18.75 26.9931 18.4462 26.3142 17.8385 25.7552C17.2309 25.1962 16.4931 24.9167 15.625 24.9167C14.7569 24.9167 14.0191 25.1962 13.4115 25.7552C12.8038 26.3142 12.5 26.9931 12.5 27.7917C12.5 28.5903 12.8038 29.2691 13.4115 29.8281C14.0191 30.3872 14.7569 30.6667 15.625 30.6667ZM34.375 30.6667C35.2431 30.6667 35.9809 30.3872 36.5885 29.8281C37.1962 29.2691 37.5 28.5903 37.5 27.7917C37.5 26.9931 37.1962 26.3142 36.5885 25.7552C35.9809 25.1962 35.2431 24.9167 34.375 24.9167C33.5069 24.9167 32.7691 25.1962 32.1615 25.7552C31.5538 26.3142 31.25 26.9931 31.25 27.7917C31.25 28.5903 31.5538 29.2691 32.1615 29.8281C32.7691 30.3872 33.5069 30.6667 34.375 30.6667ZM10.4167 32.5833H39.5833V23H10.4167V32.5833Z" fill="#FEF7FF"/>
</svg>
